PathFileType	4	(X/Y/Z)	./resultDataOpenSim/trcMotMarkerGrf/sub10/qtm-03-05.trc
DataRate	CameraRate	NumFrames	NumMarkers	Units	OrigDataRate	OrigDataStartFrame	OrigNumFrames
250.000000	250.000000	5	24	m	250.000000	252	502
Frame#	Time	L.Toe.Tip			R.Toe.Tip			L.Ankle.Lat			R.Ankle.Lat			L.Ankle.Med			R.Ankle.Med			L.Heel			R.Heel			L.Knee.Lat			R.Knee.Lat			L.Knee.Med			R.Knee.Med			L.Thigh.Upper			R.Thigh.Upper			L.ASIS			R.ASIS			V.Sacral			L.Acromium			R.Acromium			C7			L.Elbow			R.Elbow			L.Wrist.Lat			R.Wrist.Lat
		X1	Y1	Z1	X2	Y2	Z2	X3	Y3	Z3	X4	Y4	Z4	X5	Y5	Z5	X6	Y6	Z6	X7	Y7	Z7	X8	Y8	Z8	X9	Y9	Z9	X10	Y10	Z10	X11	Y11	Z11	X12	Y12	Z12	X13	Y13	Z13	X14	Y14	Z14	X15	Y15	Z15	X16	Y16	Z16	X17	Y17	Z17	X18	Y18	Z18	X19	Y19	Z19	X20	Y20	Z20	X21	Y21	Z21	X22	Y22	Z22	X23	Y23	Z23	X24	Y24	Z24

252	1.004	0.073342001	-0.0080847115	-0.031370131	0.14918399	0.077951968	0.14333763	-0.057470059	0.01790961	-0.080632062	0.030503081	0.15940634	0.13155521	-0.067090659	0.041717523	0.001295835	0.086262732	0.16207809	0.061570524	-0.12791726	-0.011811678	-0.046990882	-0.01012475	0.14920893	0.072322514	0.019793439	0.39859217	-0.11134597	0.24173684	0.47928888	0.17718893	-0.0021212077	0.3817004	0.0091750755	0.29340364	0.48766664	0.054232594	0.070141383	0.79046531	-0.1742185	0.028986085	0.82434388	0.20173236	0.11886803	0.90489372	-0.10574348	0.099432304	0.9221681	0.13441268	-0.10288652	0.9217219	0.0041977559	0.049334736	1.3857686	-0.13483618	0.018211724	1.3737626	0.1854781	-0.047540755	1.4065827	0.010035554	-0.011927004	1.0487847	-0.23255395	-0.074191482	1.0376572	0.20546642	0.18462763	0.89523729	-0.21844037	0.024575198	0.82055095	0.26193973
253	1.008	0.073268037	-0.0080576086	-0.03151215	0.16978259	0.077024707	0.14432026	-0.057680098	0.018020761	-0.080538589	0.048518641	0.15437861	0.13268433	-0.067021096	0.041853972	0.0014146201	0.10400894	0.15861878	0.062525143	-0.12803572	-0.011623207	-0.046853703	0.0083182204	0.14279564	0.073536136	0.019697971	0.39871205	-0.11178026	0.25282666	0.48144206	0.17701787	-0.0017886699	0.38167305	0.0090116866	0.30132882	0.49056052	0.053919506	0.073339118	0.79002619	-0.17395842	0.03596096	0.82558889	0.2024483	0.12317542	0.9043395	-0.10598902	0.10585969	0.92241753	0.1339067	-0.093019609	0.92029874	0.0026945901	0.054672045	1.3857863	-0.13476245	0.024271344	1.3736932	0.1855773	-0.041817941	1.4066192	0.010286317	-0.0033494033	1.0481092	-0.23264911	-0.070190662	1.0385229	0.2054792	0.19598061	0.89798362	-0.21606051	0.025075453	0.82046377	0.26339192
254	1.012	0.073209621	-0.0080328173	-0.031680908	0.19045134	0.076147298	0.14525587	-0.057893702	0.018126757	-0.080454926	0.066667522	0.14937723	0.13376221	-0.066973324	0.042010798	0.0015658573	0.12186615	0.15524512	0.063391626	-0.1281432	-0.011438286	-0.046604855	0.027050901	0.13634374	0.074565676	0.019747913	0.39890753	-0.11230717	0.26059502	0.48319981	0.17653779	-0.0011564797	0.38154545	0.0087978029	0.30903113	0.49322199	0.053630474	0.076466946	0.78957949	-0.17370738	0.043356755	0.82686131	0.20334638	0.12743099	0.9037358	-0.10627662	0.11237397	0.92256727	0.13341178	-0.083652038	0.91946876	0.0012919476	0.060022886	1.3857198	-0.13470974	0.030372139	1.3735398	0.18566484	-0.036088525	1.4065823	0.010537875	0.005267886	1.0473696	-0.23269709	-0.066365762	1.0393398	0.20557398	0.20732047	0.90071357	-0.21362169	0.025525086	0.82037201	0.26479916
255	1.016	0.073207867	-0.0079968428	-0.031902625	0.21119332	0.075332445	0.14615285	-0.058087797	0.01822544	-0.080362166	0.084973752	0.14436906	0.13483848	-0.066982357	0.04219412	0.0017432253	0.13984749	0.15192236	0.064143482	-0.12826321	-0.011245523	-0.04626907	0.046078012	0.12985078	0.075420925	0.019891697	0.39916601	-0.1128598	0.26670148	0.48450664	0.17588872	-0.00040138946	0.38135687	0.0085911203	0.31651066	0.49565366	0.053371329	0.079625722	0.78915102	-0.17340867	0.050866972	0.82806207	0.2042873	0.13172112	0.90310691	-0.10656527	0.11881588	0.92266	0.1329919	-0.076385052	0.91937164	0.0015279807	0.065381856	1.385566	-0.13468447	0.036501295	1.3732992	0.18574964	-0.030351464	1.4064655	0.010791138	0.013923015	1.0465712	-0.23271004	-0.062895598	1.0401316	0.20581635	0.21856553	0.90340685	-0.2111917	0.026064338	0.82027653	0.26619426
256	1.02	0.073254615	-0.0079602738	-0.032158365	0.23200128	0.074599096	0.14701545	-0.058248098	0.018325124	-0.080258599	0.10343306	0.13932883	0.13598709	-0.067029473	0.042396332	0.0018988055	0.15796346	0.14858824	0.064828957	-0.12842008	-0.011028182	-0.045882152	0.065404593	0.12335882	0.076096376	0.019983077	0.39940873	-0.11323327	0.27348312	0.48549935	0.17519938	0.00036952658	0.38113462	0.0084297445	0.32380624	0.49786102	0.053143736	0.082948531	0.78877372	-0.17301347	0.058304558	0.82914038	0.20518559	0.13612184	0.90248937	-0.10680425	0.12510751	0.92271139	0.13267533	-0.070972972	0.91966594	0.003400486	0.070750532	1.3853231	-0.13468255	0.042638586	1.3729665	0.18583903	-0.024604792	1.4062698	0.011047687	0.022610169	1.0457191	-0.23268954	-0.059672149	1.0408803	0.20612354	0.22967552	0.90605464	-0.20880813	0.026679542	0.82015401	0.26754254
